<svg width="189" height="188" viewBox="0 0 189 188" fill="none" xmlns="http://www.w3.org/2000/svg">
<g clip-path="url(#clip0)">
<path d="M61.0347 82.382V83.6495H66.5069V85.3393H61.0347V87.8742H57.6672V85.3393H55.1416V83.6495H57.6672V70.1304H64.8231C67.3487 70.1304 69.0325 70.5528 70.2953 71.8202C71.5581 72.6652 72.4 74.3551 72.4 76.4674C72.4 78.5798 71.5581 79.8472 70.2953 81.1146C69.0325 81.9596 66.9278 82.8045 64.8231 82.8045H61.0347V82.382ZM68.1906 73.9326C67.3487 73.5101 66.5069 73.0877 65.244 73.0877H61.4556V79.4247H65.244C66.5069 79.4247 67.7697 79.0023 68.1906 78.5798C69.0325 78.1573 69.4534 77.3124 69.4534 76.045C69.0325 75.2 69.0325 74.3551 68.1906 73.9326Z" fill="#FF9801"/>
<path d="M0 4.22472V64.2157C0 66.7506 1.68374 68.4405 4.20935 68.4405H24.4143C26.098 68.4405 27.3608 67.173 27.3608 65.4831C27.3608 63.7933 26.098 62.5258 24.4143 62.5258H9.68151C7.1559 62.5258 5.47216 60.836 5.47216 58.3011V9.71685C5.47216 7.18202 7.1559 5.49213 9.68151 5.49213H179.318C181.844 5.49213 183.528 7.18202 183.528 9.71685V58.7236C183.528 61.2584 181.844 62.9483 179.318 62.9483H164.586C162.902 62.9483 161.639 64.2157 161.639 65.9056C161.639 67.5955 162.902 68.8629 164.586 68.8629H184.791C187.316 68.8629 189 67.173 189 64.6382V4.22472C189 1.68989 187.316 0 184.791 0H4.20935C1.68374 0 0 1.68989 0 4.22472Z" fill="#202021"/>
<path d="M164.587 35.0652C164.587 33.3753 163.324 32.1079 161.64 32.1079H135.542C133.858 32.1079 132.595 33.3753 132.595 35.0652C132.595 36.7551 133.858 38.0225 135.542 38.0225H147.749V176.593C147.749 179.128 145.224 180.396 143.119 179.551L133.016 175.326C132.175 174.903 131.333 174.903 130.491 175.326L114.495 181.663C113.653 182.085 112.811 182.085 111.97 181.663L95.9741 174.903C95.1322 174.481 94.2903 174.481 93.4485 174.903L77.032 181.663C76.1901 182.085 75.3482 182.085 74.5064 181.663L58.5108 174.903C57.669 174.481 56.8271 174.481 55.9852 174.903L45.8828 179.128C43.7781 179.973 41.2525 178.283 41.2525 176.171V163.074C41.2525 161.384 39.9897 160.117 38.3059 160.117C36.6222 160.117 35.3594 161.384 35.3594 163.074V184.62C35.3594 187.155 37.885 188.423 39.9897 187.578L55.5643 181.24C56.4061 180.818 57.248 180.818 58.0899 181.24L74.0854 188C74.9273 188.422 75.7692 188.422 76.611 188L92.6066 181.24C93.4485 180.818 94.2903 180.818 95.1322 181.24L111.128 188C111.97 188.422 112.811 188.422 113.653 188L129.649 181.24C130.491 180.818 131.333 180.818 132.175 181.24L147.749 187.578C149.854 188.423 152.379 186.733 152.379 184.62V37.6H160.798C163.324 37.6 164.587 36.3326 164.587 35.0652Z" fill="#202021"/>
<path d="M27.3606 37.6H35.7793V151.667C35.7793 153.357 37.0421 154.625 38.7259 154.625C40.4096 154.625 41.6724 153.357 41.6724 151.667V38.0225H125.018C126.701 38.0225 127.964 36.7551 127.964 35.0652C127.964 33.3753 126.701 32.1079 125.018 32.1079H27.3606C25.6769 32.1079 24.4141 33.3753 24.4141 35.0652C24.4141 36.3326 25.6769 37.6 27.3606 37.6Z" fill="#202021"/>
<path d="M83.344 70.5529H130.91C132.593 70.5529 133.856 71.8203 133.856 73.5102C133.856 75.2 132.593 76.4675 130.91 76.4675H83.344C81.6603 76.4675 80.3975 75.2 80.3975 73.5102C80.8184 71.3978 82.0812 70.5529 83.344 70.5529Z" fill="#202021"/>
<path d="M83.344 84.4944H130.91C132.593 84.4944 133.856 85.7618 133.856 87.4517C133.856 89.1416 132.593 90.409 130.91 90.409H83.344C81.6603 90.409 80.3975 89.1416 80.3975 87.4517C80.8184 85.7618 82.0812 84.4944 83.344 84.4944Z" fill="#202021"/>
<path d="M59.351 98.436H130.068C132.173 98.436 134.277 99.7034 134.277 101.393C134.277 103.083 132.594 104.351 130.068 104.351H59.351C57.2463 104.351 55.1416 103.083 55.1416 101.393C55.1416 99.7034 56.8253 98.436 59.351 98.436Z" fill="#202021"/>
<path d="M58.0881 112.378H131.331C133.015 112.378 134.277 113.645 134.277 115.335C134.277 117.025 133.015 118.292 131.331 118.292H58.0881C56.4044 118.292 55.1416 117.025 55.1416 115.335C55.1416 113.645 56.4044 112.378 58.0881 112.378Z" fill="#202021"/>
<path d="M58.0881 126.319H131.331C133.015 126.319 134.277 127.587 134.277 129.276C134.277 130.966 133.015 132.234 131.331 132.234H58.0881C56.4044 132.234 55.1416 130.966 55.1416 129.276C55.1416 127.587 56.4044 126.319 58.0881 126.319Z" fill="#202021"/>
<path d="M58.0881 140.261H131.331C133.015 140.261 134.277 141.528 134.277 143.218C134.277 144.908 133.015 146.175 131.331 146.175H58.0881C56.4044 146.175 55.1416 144.908 55.1416 143.218C55.1416 141.528 56.4044 140.261 58.0881 140.261Z" fill="#202021"/>
<path d="M169.216 50.6966C170.9 50.6966 172.163 51.964 172.163 53.6539C172.163 55.3438 170.9 56.6112 169.216 56.6112C167.532 56.6112 166.27 55.3438 166.27 53.6539C166.27 51.964 167.532 50.6966 169.216 50.6966Z" fill="#202021"/>
<path d="M19.7835 50.6966C21.4672 50.6966 22.73 51.964 22.73 53.6539C22.73 55.3438 21.4672 56.6112 19.7835 56.6112C18.0997 56.6112 16.8369 55.3438 16.8369 53.6539C17.2578 51.964 18.5207 50.6966 19.7835 50.6966Z" fill="#202021"/>
<path d="M111.126 20.7011C109.442 20.7011 108.18 19.4337 108.18 17.7438C108.18 16.0539 109.442 14.7865 111.126 14.7865C112.81 14.7865 114.073 16.0539 114.073 17.7438C113.652 19.4337 112.389 20.7011 111.126 20.7011ZM94.2888 20.7011C92.6051 20.7011 91.3423 19.4337 91.3423 17.7438C91.3423 16.0539 92.6051 14.7865 94.2888 14.7865C95.9725 14.7865 97.2354 16.0539 97.2354 17.7438C97.2354 19.4337 95.9725 20.7011 94.2888 20.7011ZM77.8723 20.7011C76.1886 20.7011 74.9258 19.4337 74.9258 17.7438C74.9258 16.0539 76.1886 14.7865 77.8723 14.7865C79.5561 14.7865 80.8189 16.0539 80.8189 17.7438C80.3979 19.4337 79.1351 20.7011 77.8723 20.7011Z" fill="#FF9801"/>
</g>
<defs>
<clipPath id="clip0">
<rect width="189" height="188" fill="white"/>
</clipPath>
</defs>
</svg>
