<svg width="215" height="164" viewBox="0 0 215 164" fill="none" xmlns="http://www.w3.org/2000/svg">
<path d="M60 72.0606C54.5 72.0606 50 76.5333 50 82C50 87.4667 54.5 91.9394 60 91.9394C65.5 91.9394 70 87.4667 70 82C70 76.5333 65.5 72.0606 60 72.0606ZM60 86.9697C57.25 86.9697 55 84.7333 55 82C55 79.2667 57.25 77.0303 60 77.0303C62.75 77.0303 65 79.2667 65 82C65 84.7333 62.75 86.9697 60 86.9697Z" fill="#202021"/>
<path d="M30 72.0606C24.5 72.0606 20 76.5333 20 82C20 87.4667 24.5 91.9394 30 91.9394C35.5 91.9394 40 87.4667 40 82C40 76.5333 35.5 72.0606 30 72.0606ZM30 86.9697C27.25 86.9697 25 84.7333 25 82C25 79.2667 27.25 77.0303 30 77.0303C32.75 77.0303 35 79.2667 35 82C35 84.7333 32.75 86.9697 30 86.9697Z" fill="#202021"/>
<path d="M90 72.0606C84.5 72.0606 80 76.5333 80 82C80 87.4667 84.5 91.9394 90 91.9394C95.5 91.9394 100 87.4667 100 82C100 76.5333 95.5 72.0606 90 72.0606ZM90 86.9697C87.25 86.9697 85 84.7333 85 82C85 79.2667 87.25 77.0303 90 77.0303C92.75 77.0303 95 79.2667 95 82C95 84.7333 92.75 86.9697 90 86.9697Z" fill="#202021"/>
<path d="M60 101.879C54.5 101.879 50 106.352 50 111.818C50 117.285 54.5 121.758 60 121.758C65.5 121.758 70 117.285 70 111.818C70 106.352 65.5 101.879 60 101.879ZM60 116.788C57.25 116.788 55 114.552 55 111.818C55 109.085 57.25 106.848 60 106.848C62.75 106.848 65 109.085 65 111.818C65 114.552 62.75 116.788 60 116.788Z" fill="#202021"/>
<path d="M30 101.879C24.5 101.879 20 106.352 20 111.818C20 117.285 24.5 121.758 30 121.758C35.5 121.758 40 117.285 40 111.818C40 106.352 35.5 101.879 30 101.879ZM30 116.788C27.25 116.788 25 114.552 25 111.818C25 109.085 27.25 106.848 30 106.848C32.75 106.848 35 109.085 35 111.818C35 114.552 32.75 116.788 30 116.788Z" fill="#202021"/>
<path d="M90 101.879C84.5 101.879 80 106.352 80 111.818C80 117.285 84.5 121.758 90 121.758C95.5 121.758 100 117.285 100 111.818C100 106.352 95.5 101.879 90 101.879ZM90 116.788C87.25 116.788 85 114.552 85 111.818C85 109.085 87.25 106.848 90 106.848C92.75 106.848 95 109.085 95 111.818C95 114.552 92.75 116.788 90 116.788Z" fill="#202021"/>
<path d="M60 131.697C54.5 131.697 50 136.17 50 141.636C50 147.103 54.5 151.576 60 151.576C65.5 151.576 70 147.103 70 141.636C70 136.17 65.5 131.697 60 131.697ZM60 146.606C57.25 146.606 55 144.37 55 141.636C55 138.903 57.25 136.667 60 136.667C62.75 136.667 65 138.903 65 141.636C65 144.37 62.75 146.606 60 146.606Z" fill="#202021"/>
<path d="M30 131.697C24.5 131.697 20 136.17 20 141.636C20 147.103 24.5 151.576 30 151.576C35.5 151.576 40 147.103 40 141.636C40 136.17 35.5 131.697 30 131.697ZM30 146.606C27.25 146.606 25 144.37 25 141.636C25 138.903 27.25 136.667 30 136.667C32.75 136.667 35 138.903 35 141.636C35 144.37 32.75 146.606 30 146.606Z" fill="#202021"/>
<path d="M90 131.697C84.5 131.697 80 136.17 80 141.636C80 147.103 84.5 151.576 90 151.576C95.5 151.576 100 147.103 100 141.636C100 136.17 95.5 131.697 90 131.697ZM90 146.606C87.25 146.606 85 144.37 85 141.636C85 138.903 87.25 136.667 90 136.667C92.75 136.667 95 138.903 95 141.636C95 144.37 92.75 146.606 90 146.606Z" fill="#202021"/>
<path d="M97.5 34.7879H22.5C21 34.7879 20 35.7818 20 37.2727V62.1212C20 63.6121 21 64.6061 22.5 64.6061H97.5C99 64.6061 100 63.6121 100 62.1212V37.2727C100 35.7818 99 34.7879 97.5 34.7879ZM95 59.6364H25V39.7576H95V59.6364Z" fill="#202021"/>
<path d="M190 94.4242C187.75 94.4242 185.5 95.1697 183.75 96.1636C181.75 94.9212 179.75 94.4242 177.5 94.4242C170.5 94.4242 165 99.8909 165 106.848C165 113.806 170.5 119.273 177.5 119.273C179.75 119.273 181.75 118.776 183.75 117.533C185.5 118.527 187.75 119.273 190 119.273C197 119.273 202.5 113.806 202.5 106.848C202.5 99.8909 197 94.4242 190 94.4242ZM177.5 114.303C173.25 114.303 170 111.073 170 106.848C170 102.624 173.25 99.3939 177.5 99.3939C178.25 99.3939 179 99.3939 179.75 99.6424C178.25 101.63 177.5 104.364 177.5 106.848C177.5 109.333 178.25 112.067 179.75 114.055C179 114.303 178.25 114.303 177.5 114.303ZM190 114.303C186 114.303 182.5 111.073 182.5 106.848C182.5 102.624 186 99.3939 190 99.3939C194.25 99.3939 197.5 102.624 197.5 106.848C197.5 111.073 194.25 114.303 190 114.303Z" fill="#FF9801"/>
<path d="M32.5 57.1515C34 57.1515 35 56.1576 35 54.6667V44.7273C35 43.2364 34 42.2424 32.5 42.2424C31 42.2424 30 43.2364 30 44.7273V54.6667C30 56.1576 31 57.1515 32.5 57.1515Z" fill="#FF9801"/>
<path d="M42.5 57.1515C44 57.1515 45 56.1576 45 54.6667V44.7273C45 43.2364 44 42.2424 42.5 42.2424C41 42.2424 40 43.2364 40 44.7273V54.6667C40 56.1576 41 57.1515 42.5 57.1515Z" fill="#FF9801"/>
<path d="M52.5 57.1515C54 57.1515 55 56.1576 55 54.6667V44.7273C55 43.2364 54 42.2424 52.5 42.2424C51 42.2424 50 43.2364 50 44.7273V54.6667C50 56.1576 51 57.1515 52.5 57.1515Z" fill="#FF9801"/>
<path d="M12.5 24.8485C12.5 26.3394 13.5 27.3333 15 27.3333C49 27.3333 71.5 27.3333 105 27.3333C106.5 27.3333 107.5 26.3394 107.5 24.8485C107.5 23.3576 106.5 22.3636 105 22.3636H102.5H97.5H22.5H17.5H15C13.5 22.3636 12.5 23.3576 12.5 24.8485Z" fill="#202021"/>
<path d="M212.5 32.303H135V22.3636C135 20.8727 134 19.8788 132.5 19.8788H120V12.4242C120 5.46667 114.5 0 107.5 0H105V4.9697H107.5C111.75 4.9697 115 8.2 115 12.4242C115 40.0061 115 124.242 115 151.576C115 155.8 111.75 159.03 107.5 159.03H12.5C8.25 159.03 5 155.8 5 151.576V12.4242C5 8.2 8.25 4.9697 12.5 4.9697H15V0H12.5C5.5 0 0 5.46667 0 12.4242V151.576C0 158.533 5.5 164 12.5 164H107.5C114.5 164 120 158.533 120 151.576V144.121H132.5C134 144.121 135 143.127 135 141.636V131.697H212.5C214 131.697 215 130.703 215 129.212V64.6061V49.697V34.7879C215 33.297 214 32.303 212.5 32.303ZM130 139.152H120V24.8485H130C130 88.9576 130 75.7879 130 139.152ZM210 126.727H135V67.0909H210V126.727ZM210 62.1212H135V52.1818H210V62.1212ZM210 47.2121H135V37.2727H210V47.2121Z" fill="#202021"/>
<path d="M105 0H15V4.9697H105V0Z" fill="#202021"/>
</svg>
