<svg width="192" height="170" viewBox="0 0 192 170" fill="none" xmlns="http://www.w3.org/2000/svg">
<path d="M189.767 0H2.23256C0.893023 0 0 0.894737 0 2.23684V42.5C0 43.8421 0.893023 44.7368 2.23256 44.7368H29.0233V91.7105C29.0233 93.0526 29.9163 93.9474 31.2558 93.9474H51.3488V101.105C51.3488 107.145 53.5814 112.737 57.3767 117.211L64.2977 125.039H58.0465C56.707 125.039 55.814 125.934 55.814 127.276V145.171C55.814 146.513 56.707 147.408 58.0465 147.408H62.5116V167.539C62.5116 168.882 63.4047 169.776 64.7442 169.776C66.0837 169.776 66.9767 168.882 66.9767 167.539V147.408H129.488V167.539C129.488 168.882 130.381 169.776 131.721 169.776C133.06 169.776 133.953 168.882 133.953 167.539V147.408H138.419C139.758 147.408 140.651 146.513 140.651 145.171V127.276C140.651 125.934 139.758 125.039 138.419 125.039H129.488V112.737C135.07 108.039 138.419 101.105 138.419 93.7237H160.744C162.084 93.7237 162.977 92.829 162.977 91.4868V44.7368H189.767C191.107 44.7368 192 43.8421 192 42.5V2.23684C192 0.894737 191.107 0 189.767 0ZM29.0233 26.8421H22.3256C19.8698 26.8421 17.8605 24.8289 17.8605 22.3684C17.8605 19.9079 19.8698 17.8947 22.3256 17.8947H29.0233V26.8421ZM51.3488 62.6316V70.4605C49.5628 68.8947 47.107 67.5526 44.6512 67.3289V40.0395C50.2326 39.1447 54.6977 34.6711 55.5907 29.0789H136.409C137.302 34.6711 141.767 39.1447 147.349 40.0395V67.3289C141.767 68.2237 137.302 72.6974 136.409 78.2895H73.6744V62.6316C73.6744 56.3684 68.7628 51.4474 62.5116 51.4474C56.2605 51.4474 51.3488 56.8158 51.3488 62.6316ZM136.186 129.737V143.158C107.609 143.158 88.1861 143.158 60.2791 143.158V129.737H136.186ZM125.916 110.053C125.247 110.5 125.023 111.171 125.023 111.842V125.263H70.3256L60.9488 114.526C57.8233 110.947 56.0372 106.25 56.0372 101.329C56.0372 64.8684 56.0372 99.3158 56.0372 62.8553C56.0372 59.0526 59.1628 56.1447 62.7349 56.1447C66.5302 56.1447 69.4326 59.0526 69.4326 62.8553V80.75V89.6974C69.4326 91.0395 70.3256 91.9342 71.6651 91.9342C74.3442 91.9342 77.2465 92.6053 79.7023 93.9474C85.507 96.8553 89.5256 102.895 89.5256 109.829V112.066C89.5256 113.408 90.4186 114.303 91.7581 114.303C93.0977 114.303 93.9907 113.408 93.9907 112.066V109.829C93.9907 103.789 91.5349 98.1974 87.5163 94.1711H133.953C133.953 100.211 131.051 106.25 125.916 110.053ZM158.512 89.4737H81.0419C78.5861 88.3553 75.907 87.6842 73.6744 87.2368V82.7632H138.419C139.758 82.7632 140.651 81.8684 140.651 80.5263C140.651 75.6053 144.67 71.5789 149.581 71.5789C150.921 71.5789 151.814 70.6842 151.814 69.3421V38.0263C151.814 36.6842 150.921 35.7895 149.581 35.7895C144.67 35.7895 140.651 31.7632 140.651 26.8421C140.651 25.5 139.758 24.6053 138.419 24.6053H53.5814C52.2419 24.6053 51.3488 25.5 51.3488 26.8421C51.3488 31.7632 47.3302 35.7895 42.4186 35.7895C41.0791 35.7895 40.1861 36.6842 40.1861 38.0263V69.3421C40.1861 70.6842 41.0791 71.5789 42.4186 71.5789C47.3302 71.5789 51.3488 75.6053 51.3488 80.5263V89.4737H33.4884C33.4884 64.8684 33.4884 46.0789 33.4884 17.8947H158.512C158.512 55.0263 158.512 52.7895 158.512 89.4737ZM187.535 40.2632H162.977V31.3158H169.674C174.586 31.3158 178.605 27.2895 178.605 22.3684C178.605 17.4474 174.586 13.4211 169.674 13.4211C153.377 13.4211 37.7302 13.4211 22.3256 13.4211C17.414 13.4211 13.3953 17.4474 13.3953 22.3684C13.3953 27.2895 17.414 31.3158 22.3256 31.3158H29.0233V40.2632H4.46512V4.47368H187.535V40.2632ZM162.977 26.8421V17.8947H169.674C172.13 17.8947 174.14 19.9079 174.14 22.3684C174.14 24.8289 172.13 26.8421 169.674 26.8421H162.977Z" fill="#202021"/>
<path d="M93.5061 57.0195V58.8997H100.476V61.0484H93.5061V64.2714H89.2169V61.0484H86V58.8997H89.2169V41.9786H98.5995C101.548 41.9786 103.961 42.5158 105.569 43.8587C107.178 45.2016 107.982 47.0818 107.982 49.4991C107.982 51.9164 107.178 53.7965 105.569 55.1394C103.961 56.4824 101.548 57.0195 98.5995 57.0195H93.5061ZM102.621 46.5446C101.816 45.7388 100.476 45.4702 98.5995 45.4702H93.5061V53.5279H98.5995C100.208 53.5279 101.548 53.2593 102.621 52.4535C103.425 51.6478 103.961 50.842 103.961 49.4991C103.961 48.1561 103.425 47.0818 102.621 46.5446Z" fill="#FF9801"/>
<path d="M128 139C129.105 139 130 138.105 130 137C130 135.895 129.105 135 128 135V139ZM106.5 135C105.395 135 104.5 135.895 104.5 137C104.5 138.105 105.395 139 106.5 139V135ZM128 135H106.5V139H128V135Z" fill="#FF9801"/>
</svg>
