<svg width="190" height="190" viewBox="0 0 190 190" fill="none" xmlns="http://www.w3.org/2000/svg">
<g clip-path="url(#clip0)">
<path d="M179.721 113.221H178.014V41.0059C178.014 35.3281 173.412 30.7266 167.734 30.7266H166.027V2.7832C166.027 1.26172 164.766 0 163.244 0H26.793C18.6289 0 12.0234 6.64258 12.0234 14.7695V35.1797C4.56445 40.1152 0 48.5391 0 57.5195V94.2578V163.244C0 177.977 12.0234 190 26.793 190H139.383C140.904 190 142.166 188.738 142.166 187.217C142.166 185.695 140.904 184.434 139.383 184.434H26.793C15.0664 184.434 5.56641 174.934 5.56641 163.207V94.2578V73.8477C10.4648 80.1934 18.1465 84.3125 26.793 84.3125H167.734C170.332 84.3125 172.447 86.4277 172.447 89.0254V113.221H157.232C145.766 113.221 136.451 122.535 136.451 134.002C136.451 145.469 145.766 154.783 157.232 154.783H172.447V179.758C172.447 182.355 170.332 184.471 167.734 184.471H152.371C150.85 184.471 149.588 185.732 149.588 187.254C149.588 188.775 150.85 190.037 152.371 190.037H167.734C173.412 190.037 178.014 185.436 178.014 179.758V154.746H179.721C185.398 154.746 190 150.145 190 144.467V123.463C190 117.822 185.398 113.221 179.721 113.221ZM167.734 36.293C170.332 36.293 172.447 38.4082 172.447 41.0059V67.873C171.037 67.1309 169.441 66.7227 167.734 66.7227H166.027V36.293H167.734ZM167.734 78.709H26.793C15.0664 78.709 5.56641 69.209 5.56641 57.5195C5.56641 51.7305 7.94141 46.2754 11.9863 42.3047V57.5195C11.9863 65.6836 18.6289 72.2891 26.7559 72.2891H44.123C45.6445 72.2891 46.9062 71.0273 46.9062 69.5059C46.9062 67.9844 45.6445 66.7227 44.123 66.7227H26.793C21.709 66.7227 17.5898 62.6035 17.5898 57.5195V26.3477C20.1133 28.3516 23.3047 29.5762 26.793 29.5762H128.992C130.514 29.5762 131.775 28.3145 131.775 26.793C131.775 25.2715 130.514 24.0098 128.992 24.0098H26.793C21.709 24.0098 17.5898 19.8906 17.5898 14.8066C17.5527 9.68555 21.709 5.56641 26.793 5.56641H160.461V11.9863H26.793C25.2715 11.9863 24.0098 13.248 24.0098 14.7695C24.0098 16.291 25.2715 17.5527 26.793 17.5527H160.461V23.9727H141.943C140.422 23.9727 139.16 25.2344 139.16 26.7559C139.16 28.2773 140.422 29.5391 141.943 29.5391H160.461V66.7227H154.004V57.5195C154.004 55.998 152.742 54.7363 151.221 54.7363C142.426 54.7363 135.264 47.5742 135.264 38.7793C135.264 37.2578 134.002 35.9961 132.48 35.9961H36.5156C34.9941 35.9961 33.7324 37.2578 33.7324 38.7793C33.7324 40.3008 34.9941 41.5625 36.5156 41.5625H129.883C131.145 51.2109 138.789 58.8926 148.438 60.1172V66.7227H57.1113C55.5898 66.7227 54.3281 67.9844 54.3281 69.5059C54.3281 71.0273 55.5898 72.2891 57.1113 72.2891H167.697C170.295 72.2891 172.373 74.3672 172.41 76.9648V79.8594C171.037 79.1543 169.404 78.709 167.734 78.709ZM184.434 144.467C184.434 147.064 182.318 149.18 179.721 149.18H175.268H175.23H175.193H157.232C148.846 149.18 142.018 142.352 142.018 133.965C142.018 125.578 148.846 118.75 157.232 118.75H175.23H179.721C182.318 118.75 184.434 120.865 184.434 123.463V144.467Z" fill="#202021"/>
<path d="M157.232 125.207C152.408 125.207 148.438 129.141 148.438 134.002C148.438 138.863 152.371 142.797 157.232 142.797C162.094 142.797 166.027 138.863 166.027 134.002C166.027 129.141 162.057 125.207 157.232 125.207ZM157.232 137.193C155.451 137.193 154.004 135.746 154.004 133.965C154.004 132.184 155.451 130.736 157.232 130.736C159.014 130.736 160.461 132.184 160.461 133.965C160.461 135.746 159.014 137.193 157.232 137.193Z" fill="#FF9801"/>
<path d="M37 51H90.5" stroke="#FF9801" stroke-width="5" stroke-linecap="round"/>
</g>
<defs>
<clipPath id="clip0">
<rect width="190" height="190" fill="white"/>
</clipPath>
</defs>
</svg>
