<svg width="88" height="125" viewBox="0 0 88 125" fill="none" xmlns="http://www.w3.org/2000/svg">
<g clip-path="url(#clip0)">
<path d="M77 51.5137C75.5578 51.5137 74.2133 51.7822 72.9422 52.2949C71.6711 47.6318 67.3933 44.1895 62.3333 44.1895C59.5222 44.1895 56.9556 45.2393 55 46.9971C53.0444 45.2637 50.4778 44.1895 47.6667 44.1895C46.3711 44.1895 45.1489 44.4092 44 44.8242V32.959C44 26.9043 39.0622 21.9727 33 21.9727C26.9378 21.9727 22 26.9043 22 32.959V65.2832C20.24 63.5254 18.7733 62.0605 18.7733 62.0605C14.7156 58.0078 8.11556 57.7637 3.78889 61.5234C-0.562219 65.2832 -1.27111 71.8262 2.2 76.416C2.24889 76.4648 2.27334 76.5137 2.32223 76.5625L18.6267 96.0205C20.3867 98.1445 22.9533 99.4385 25.2022 100.586C26.84 101.416 29.3333 102.686 29.3333 103.491V113.989C29.3333 120.044 34.2711 124.976 40.3333 124.976H69.6667C75.7289 124.976 80.6667 120.044 80.6667 113.989V106.421C80.6667 104.98 82.06 103.223 83.5267 101.367C85.6289 98.7549 88 95.7764 88 91.7725V62.5C88 56.4453 83.0622 51.5137 77 51.5137ZM77.7822 96.8506C75.68 99.4629 73.3089 102.441 73.3089 106.445V114.014C73.3089 116.04 71.6711 117.676 69.6422 117.676H40.3333C38.3044 117.676 36.6667 116.04 36.6667 114.014V103.516C36.6667 98.2422 31.9733 95.8252 28.5511 94.0918C26.84 93.2129 25.0556 92.3096 24.2489 91.333L8.01778 71.9726C6.91778 70.4346 7.16223 68.3105 8.60445 67.0654C10.0467 65.8203 12.2467 65.8936 13.5911 67.2363C13.5911 67.2363 22.4644 76.0986 23.0756 76.709C25.3733 79.0039 29.3333 77.3682 29.3333 74.1211V32.959C29.3333 30.9326 30.9711 29.2969 33 29.2969C35.0289 29.2969 36.6667 30.9326 36.6667 32.959V62.5C36.6667 64.5264 38.3044 66.1621 40.3333 66.1621C42.3622 66.1621 44 64.5264 44 62.5V55.1758C44 53.1494 45.6378 51.5137 47.6667 51.5137C49.6956 51.5137 51.3333 53.1494 51.3333 55.1758V62.5C51.3333 64.5264 52.9711 66.1621 55 66.1621C57.0289 66.1621 58.6667 64.5264 58.6667 62.5V55.1758C58.6667 53.1494 60.3045 51.5137 62.3333 51.5137C64.3622 51.5137 66 53.1494 66 55.1758V62.5C66 64.5264 67.6378 66.1621 69.6667 66.1621C71.6956 66.1621 73.3333 64.5264 73.3333 62.5C73.3333 60.4736 74.9711 58.8379 77 58.8379C79.0289 58.8379 80.6667 60.4736 80.6667 62.5V91.7969C80.6667 93.2373 79.2733 94.9951 77.7822 96.8506Z" fill="#FF9801"/>
<path d="M32.9997 0C30.9708 0 29.333 1.63574 29.333 3.66211V10.9863C29.333 13.0127 30.9708 14.6484 32.9997 14.6484C35.0286 14.6484 36.6663 13.0127 36.6663 10.9863V3.66211C36.6663 1.63574 35.0041 0 32.9997 0Z" fill="#FF9801"/>
<path d="M52.849 5.81055C51.4068 4.37012 49.0845 4.37012 47.6668 5.81055L42.4601 10.9863C41.0179 12.4268 41.0179 14.7461 42.4601 16.1621C43.9023 17.6025 46.2245 17.6025 47.6423 16.1621L52.849 10.9863C54.2668 9.5459 54.2668 7.22656 52.849 5.81055Z" fill="#FF9801"/>
<path d="M23.5156 10.9863L18.3334 5.81055C16.8911 4.37012 14.5689 4.37012 13.1511 5.81055C11.7334 7.25098 11.7089 9.57031 13.1511 10.9863L18.3334 16.1621C19.7756 17.6025 22.0978 17.6025 23.5156 16.1621C24.9334 14.7461 24.9334 12.4268 23.5156 10.9863Z" fill="#FF9801"/>
<path d="M58.667 21.9727H51.3337C49.3048 21.9727 47.667 23.6084 47.667 25.6348C47.667 27.6611 49.3048 29.2969 51.3337 29.2969H58.667C60.6959 29.2969 62.3337 27.6611 62.3337 25.6348C62.3337 23.6084 60.6714 21.9727 58.667 21.9727Z" fill="#FF9801"/>
<path d="M14.667 21.9727H7.33366C5.30477 21.9727 3.66699 23.6084 3.66699 25.6348C3.66699 27.6611 5.30477 29.2969 7.33366 29.2969H14.667C16.6959 29.2969 18.3337 27.6611 18.3337 25.6348C18.3337 23.6084 16.6714 21.9727 14.667 21.9727Z" fill="#FF9801"/>
</g>
<defs>
<clipPath id="clip0">
<rect width="88" height="125" fill="white"/>
</clipPath>
</defs>
</svg>
