<svg width="60" height="60" viewBox="0 0 60 60" fill="none" xmlns="http://www.w3.org/2000/svg">
<g clip-path="url(#clip0)">
<ellipse rx="30" ry="30" transform="matrix(-1 0 0 1 30 30)" fill="#383838"/>
<path d="M34.5199 16.8345C34.16 16.4946 33.6002 16.5146 33.2403 16.8545L21.3843 29.2903C21.0044 29.6902 21.0044 30.31 21.3843 30.6898L33.2403 43.1257C33.4203 43.3056 33.6602 43.4056 33.9001 43.4056C34.12 43.4056 34.34 43.3256 34.5199 43.1657C34.8798 42.8258 34.8998 42.246 34.5399 41.8861L23.2037 29.9901L34.5399 18.0941C34.8998 17.7342 34.8798 17.1744 34.5199 16.8345Z" fill="white"/>
</g>
<defs>
<clipPath id="clip0">
<rect width="60" height="60" fill="white" transform="matrix(1 -8.74228e-08 -8.74228e-08 -1 0 60)"/>
</clipPath>
</defs>
</svg>
