<svg width="228" height="190" viewBox="0 0 228 190" fill="none" xmlns="http://www.w3.org/2000/svg">
<g clip-path="url(#clip0)">
<path d="M28.081 190C25.5079 190 22.9348 189.215 20.6973 187.646C17.7886 185.628 15.8867 182.714 15.2154 179.239L0.224281 98.531C-1.11821 91.469 3.58051 84.5192 10.7405 83.174L58.0633 74.3186V12.6667C58.0633 5.71681 63.7689 0 70.7051 0H215.247C222.183 0 227.889 5.71681 227.889 12.6667V95.6165C227.889 102.678 222.183 108.283 215.247 108.283H174.86L182.244 147.965C182.915 151.44 182.132 154.914 180.118 157.829C178.105 160.743 175.196 162.649 171.728 163.322L30.5422 189.776C29.7591 190 28.8641 190 28.081 190ZM58.0633 80.1475L11.7473 88.7788C7.71986 89.5634 5.03488 93.4867 5.70613 97.5221L20.6973 178.23C21.0329 180.248 22.1517 181.929 23.8298 183.05C25.5079 184.171 27.5216 184.619 29.4235 184.283L170.721 157.829C172.735 157.493 174.413 156.372 175.531 154.69C176.65 153.009 177.098 150.991 176.762 149.086L169.155 108.283H70.7051C63.6571 108.283 58.0633 102.566 58.0633 95.6165V80.1475ZM71.1526 102.791H215.359C219.274 102.791 222.407 99.6519 222.407 95.7286V51.7876H63.6571V95.2802C63.6571 99.4277 67.0133 102.791 71.1526 102.791ZM63.6571 46.1829H222.407V25.4454H63.6571V46.1829ZM63.6571 19.8407H222.407V12.6667C222.407 8.74336 219.274 5.60472 215.359 5.60472H70.7051C66.7895 5.60472 63.6571 8.74336 63.6571 12.6667V19.8407ZM27.186 157.493C25.8435 157.493 24.7248 156.596 24.3891 155.251C24.0535 153.681 25.0604 152.224 26.6266 152L52.8052 147.068C54.3715 146.844 55.8259 147.74 56.0496 149.31C56.3852 150.879 55.3784 152.336 53.8121 152.56L27.6335 157.493C27.5216 157.381 27.2979 157.493 27.186 157.493ZM63.2096 150.655C61.8671 150.655 60.7483 149.758 60.4127 148.413C60.0771 146.844 61.084 145.386 62.6502 145.162L88.8288 140.23C90.395 140.006 91.8494 140.903 92.0732 142.472C92.4088 144.041 91.4019 145.499 89.8357 145.723L63.7689 150.655C63.5452 150.655 63.3214 150.655 63.2096 150.655ZM99.2331 143.929C97.8906 143.929 96.7719 143.032 96.4363 141.687C96.1006 140.118 97.1075 138.661 98.6737 138.437L124.852 133.504C126.419 133.28 127.873 134.177 128.097 135.746C128.432 137.316 127.425 138.773 125.859 138.997L99.6806 143.929C99.5687 143.929 99.4569 143.929 99.2331 143.929ZM135.369 137.204C134.026 137.204 132.907 136.307 132.572 134.962C132.236 133.392 133.243 131.935 134.809 131.711L160.988 126.779C162.554 126.555 164.008 127.451 164.232 129.021C164.568 130.59 163.561 132.047 161.995 132.271L135.816 137.204C135.704 137.204 135.48 137.204 135.369 137.204ZM27.5216 136.195C23.7179 136.195 20.3617 133.504 19.6904 129.693L17.6767 118.596C16.8936 114.224 19.6904 110.077 24.0535 109.292L41.0584 106.153C45.4215 105.369 49.5609 108.171 50.344 112.543L52.3577 123.64C53.1409 128.012 50.344 132.159 45.9809 132.944L28.976 136.083C28.4166 136.195 27.9691 136.195 27.5216 136.195ZM42.5128 111.646C42.4009 111.646 42.1772 111.646 42.0653 111.646L25.0604 114.785C23.7179 115.009 22.9348 116.242 23.1585 117.587L25.1723 128.684C25.396 129.917 26.6266 130.814 27.9691 130.59L44.974 127.451C46.3165 127.227 47.0997 125.994 46.8759 124.649L44.8622 113.552C44.6384 112.431 43.6315 111.646 42.5128 111.646Z" fill="#202021"/>
</g>
<g clip-path="url(#clip1)">
<path d="M76.3298 76.778H129.67C130.958 76.778 132 75.7092 132 74.389C132 73.0688 130.958 72 129.67 72H76.3298C75.0423 72 74 73.0688 74 74.389C74 75.7092 75.0423 76.778 76.3298 76.778Z" fill="#FF9801"/>
<path d="M76.3298 88H107.2C108.487 88 109.53 86.9312 109.53 85.611C109.53 84.2908 108.487 83.222 107.2 83.222H76.3298C75.0423 83.222 74 84.2908 74 85.611C74 86.9312 75.0423 88 76.3298 88Z" fill="#FF9801"/>
</g>
<defs>
<clipPath id="clip0">
<rect width="228" height="190" fill="white"/>
</clipPath>
<clipPath id="clip1">
<rect width="58" height="16" fill="white" transform="translate(74 72)"/>
</clipPath>
</defs>
</svg>
