<svg width="187" height="52" viewBox="0 0 187 52" fill="none" xmlns="http://www.w3.org/2000/svg">
<g clip-path="url(#clip0)">
<path d="M81.2047 8.83279C83.1569 8.83279 84.8693 9.65765 86.1023 10.998L85.1433 11.8572C84.1501 10.8262 82.7459 10.1732 81.2047 10.1732C78.5675 10.1732 77.1633 12.1322 76.9235 14.7442H81.0334V16.1534H76.9235C77.1633 18.7997 78.5332 20.7588 81.2047 20.7588C82.7459 20.7588 84.1501 20.1401 85.1433 19.0747L86.1023 19.9683C84.9036 21.2743 83.1569 22.0992 81.2047 22.0992C77.5743 22.0992 75.3823 19.1434 75.3823 15.466C75.3823 11.8229 77.54 8.83279 81.2047 8.83279Z" fill="white"/>
<path d="M61.6826 15.466C61.6826 19.1434 59.4907 22.0992 55.8603 22.0992C53.9081 22.0992 52.1956 21.2743 50.9626 19.9683L51.9216 19.0747C52.9148 20.1401 54.3191 20.7588 55.8603 20.7588C58.4974 20.7588 59.9017 18.7998 60.1414 16.1534H56.0315V14.7786H60.1414C59.9017 12.1666 58.5317 10.2076 55.8603 10.2076C54.3191 10.2076 52.9148 10.8262 51.9216 11.8916L50.9626 11.0324C52.1614 9.69203 53.9081 8.86718 55.8603 8.86718C59.4907 8.83281 61.6826 11.8229 61.6826 15.466Z" fill="white"/>
<path d="M64.5254 21.9617H62.95L68.3271 8.97025H69.149L74.4919 21.9617H72.9164L68.7038 11.6854L64.5254 21.9617Z" fill="white"/>
<path d="M104.939 21.9617H103.501V10.345H99.4937V9.00464H108.946V10.345H104.939V21.9617Z" fill="white"/>
<path d="M134.119 15.466C134.119 16.772 133.982 17.9062 133.64 18.7998C133.023 20.6213 131.79 21.5149 130.523 21.9273C129.872 22.1335 129.153 22.2367 128.331 22.2367C127.509 22.2367 126.79 22.1335 126.139 21.9273C124.872 21.5493 123.639 20.6557 123.023 18.7998C122.714 17.9062 122.577 16.772 122.577 15.466C122.577 14.16 122.714 13.0258 123.023 12.1322C123.639 10.3107 124.872 9.41709 126.139 9.00466C126.79 8.79845 127.509 8.69534 128.331 8.69534C129.153 8.69534 129.872 8.79845 130.523 9.00466C131.79 9.38272 133.023 10.2763 133.64 12.1322C133.982 13.0258 134.119 14.16 134.119 15.466ZM132.612 15.466C132.612 13.4382 132.236 12.0291 131.516 11.1699C130.797 10.3107 129.735 9.89825 128.331 9.89825C126.927 9.89825 125.865 10.3107 125.146 11.1699C124.427 12.0291 124.084 13.4382 124.084 15.466C124.084 17.4938 124.461 18.9029 125.146 19.7621C125.865 20.6213 126.927 21.0337 128.331 21.0337C129.735 21.0337 130.797 20.6213 131.516 19.7621C132.236 18.9029 132.612 17.4938 132.612 15.466Z" fill="white"/>
<path d="M144.599 21.9617V16.0502H137.681V21.9617H136.243V8.97025H137.681V14.7098H144.565V8.97025H146.004V21.9617H144.599Z" fill="white"/>
<path d="M157.169 21.9617V16.0502H150.285V21.9617H148.846V8.97025H150.285V14.7098H157.169V8.97025H158.607V21.9617H157.169Z" fill="white"/>
<path d="M166.759 14.1256C169.67 14.1256 171.074 15.6378 171.074 18.0436C171.074 20.4494 169.807 21.9617 166.759 21.9617H161.416V8.97025H162.854V14.1256H166.759ZM166.793 20.6213C168.985 20.6213 169.739 19.6933 169.739 18.0436C169.739 16.3939 168.848 15.466 166.793 15.466H162.889V20.6213H166.793ZM172.889 21.9617V8.97025H174.328V21.9617H172.889Z" fill="white"/>
<path d="M185.562 21.9617V11.8229L178.027 21.9617H177.205V8.97025H178.643V19.109L186.212 8.97025H187V21.9617H185.562Z" fill="white"/>
<path d="M53.6341 33.8876L52.5039 35.1937V39.5585H50.9626V26.5671H52.5039V33.3034L57.6755 26.5671H59.4564L55.141 32.1692L54.6615 32.7535L55.278 33.5096L60.0044 39.5585H58.0522L53.6341 33.8876Z" fill="white"/>
<path d="M91.9244 16.2908L90.7941 17.5968V21.9617H89.2529V8.97025H90.7941V15.7065L95.9657 8.97025H97.7467L93.4313 14.5724L92.9518 15.1566L93.5683 15.9127L98.2947 21.9617H96.3425L91.9244 16.2908Z" fill="white"/>
<path d="M63.1211 39.5585H61.5457L66.9228 26.5671H67.7447L73.0876 39.5585H71.5121L70.1079 36.1216H64.5938L63.1211 39.5585ZM65.0391 34.7469H69.5599L67.2995 29.2478L65.0391 34.7469Z" fill="white"/>
<path d="M84.424 26.7046L84.2185 28.0106C82.8485 27.7356 81.5813 27.6325 80.7594 27.6325C77.8139 27.6325 76.444 29.351 76.444 33.0284C76.444 36.7059 77.8139 38.4243 80.7594 38.4243C81.6156 38.4243 82.7801 38.3556 84.2528 38.0463L84.4583 39.2836C82.9855 39.5929 81.7526 39.7647 80.7251 39.7647C76.992 39.7647 74.937 37.7713 74.937 32.9941C74.937 28.2168 76.992 26.2234 80.7251 26.2234C81.6156 26.2922 82.8485 26.4296 84.424 26.7046Z" fill="white"/>
<path d="M95.5893 26.7046L95.3838 28.0106C94.0138 27.7356 92.7466 27.6325 91.9246 27.6325C88.9792 27.6325 87.6093 29.351 87.6093 33.0284C87.6093 36.7059 88.9792 38.4243 91.9246 38.4243C92.7809 38.4243 93.9453 38.3556 95.4181 38.0463L95.6236 39.2836C94.1508 39.5929 92.9179 39.7647 91.8904 39.7647C88.1572 39.7647 86.1023 37.7713 86.1023 32.9941C86.1023 28.2168 88.1572 26.2234 91.8904 26.2234C92.7809 26.2922 94.0138 26.4296 95.5893 26.7046Z" fill="white"/>
<path d="M106.891 39.5585V29.3853L99.3566 39.5241H98.5347V26.5671H99.9731V36.7059L107.542 26.5671H108.33V39.5585H106.891Z" fill="white"/>
<path d="M116.413 26.5671C119.7 26.5671 121.516 27.8387 121.516 30.8288C121.516 33.8189 119.7 34.9874 116.413 34.9874H113.775V39.5929H112.337V26.5671H116.413ZM116.481 33.5783C118.707 33.5783 120.146 33.2003 120.146 30.7944C120.146 28.423 118.741 27.9075 116.481 27.9075H113.741V33.5783H116.481Z" fill="white"/>
<path d="M115.454 8.97025C118.741 8.97025 120.557 10.2419 120.557 13.232C120.557 16.2221 118.741 17.3906 115.454 17.3906H112.816V21.996H111.378V8.97025H115.454ZM115.522 16.0159C117.748 16.0159 119.187 15.6378 119.187 13.232C119.187 10.8605 117.783 10.345 115.522 10.345H112.782V16.0159H115.522Z" fill="white"/>
<path d="M184.431 6.56445H180.15V7.90484H184.431V6.56445Z" fill="white"/>
<path d="M7.1237 5.1897C6.26747 6.04892 5.92498 7.28619 6.26747 8.45473L11.4733 27.7356L7.63744 45.0231C7.36344 46.2948 7.74019 47.6352 8.63066 48.5631L13.22 27.77L7.1237 5.1897Z" fill="#FF9801"/>
<path d="M19.5221 26.189C18.0836 26.189 16.7821 25.2267 16.3712 23.8176L11.0968 5.80833C10.8913 5.08658 10.8913 4.26173 11.1653 3.57436C11.6448 2.40582 12.6722 1.6497 13.8367 1.51223L27.2966 0L13.0832 1.23728C9.0076 1.6497 8.8706 4.08989 9.24734 5.80833L15.1724 27.7013L10.7543 47.7726C10.4118 49.2849 10.857 50.8658 11.9188 52L18.3233 30.2445L13.2202 51.6563L14.6929 51.2439L21.0975 29.4884L15.9602 50.8658L17.5014 50.4534L23.906 28.7323L18.8028 50.1097L20.207 49.7317L26.6116 28.0449L21.5085 49.388L22.9812 48.9755L29.3858 27.2545L24.2827 48.6319L25.8581 48.1851L32.3997 24.3675L33.8724 23.9207C34.5574 23.7145 35.1397 23.3364 35.6191 22.8896L20.207 26.1203C19.9673 26.189 19.7276 26.189 19.5221 26.189Z" fill="white"/>
<path d="M36.6464 18.9372L31.783 2.54329C31.5775 1.85591 30.961 1.40912 30.2761 1.40912C30.2076 1.40912 30.1733 1.40912 30.1048 1.40912L14.2132 3.23066C13.768 3.2994 13.357 3.53998 13.083 3.91804C12.8433 4.2961 12.7405 4.77726 12.8775 5.22406L18.1519 23.3364C18.3916 24.1269 19.1794 24.6081 20.0013 24.4362L35.4819 20.9306C35.9272 20.8275 36.2696 20.5869 36.5094 20.2089C36.7149 19.7964 36.7834 19.3496 36.6464 18.9372ZM23.4947 4.43357C23.2207 4.53668 22.8783 4.36484 22.7413 4.05552C22.6043 3.71183 22.707 3.33377 23.0153 3.23066C23.2892 3.12756 23.6317 3.2994 23.7687 3.60872C23.8715 3.91804 23.7687 4.2961 23.4947 4.43357ZM26.6799 20.1401C26.6114 19.8995 26.7142 19.659 26.9196 19.5902C27.1251 19.5215 27.3306 19.6933 27.3991 19.9339C27.4676 20.1745 27.3649 20.4151 27.1594 20.4838C26.9539 20.5182 26.7484 20.3807 26.6799 20.1401ZM27.5019 21.7211C27.2964 21.7898 27.0909 21.618 27.0224 21.3774C26.9539 21.1368 27.0566 20.8962 27.2621 20.8275C27.4676 20.7588 27.6731 20.9306 27.7416 21.1712C27.8101 21.4118 27.7074 21.6523 27.5019 21.7211ZM27.7416 19.8995C27.6731 19.659 27.7759 19.4184 27.9814 19.384C28.1869 19.3153 28.3924 19.4871 28.4609 19.7277C28.5294 19.9683 28.4266 20.2089 28.2211 20.2432C28.0156 20.2776 27.8101 20.1401 27.7416 19.8995ZM28.5636 21.4461C28.3581 21.5149 28.1526 21.343 28.0841 21.1024C28.0156 20.8619 28.1184 20.6213 28.3239 20.5869C28.5294 20.5182 28.7348 20.69 28.8033 20.9306C28.8718 21.1368 28.7691 21.3774 28.5636 21.4461ZM28.8376 19.5902C28.7691 19.3496 28.8718 19.1091 29.0773 19.0747C29.2828 19.0059 29.4883 19.1778 29.5568 19.4184C29.6253 19.659 29.5226 19.8995 29.3171 19.9339C29.1116 20.0026 28.9061 19.8308 28.8376 19.5902ZM29.6253 21.1368C29.4198 21.2055 29.2143 21.0337 29.1458 20.7931C29.0773 20.5525 29.1801 20.312 29.3856 20.2776C29.5911 20.2089 29.7966 20.3807 29.8651 20.6213C29.9336 20.8619 29.8308 21.1024 29.6253 21.1368Z" fill="white"/>
<path d="M4.17812 8.11102C3.28764 9.00461 2.94515 10.2763 3.28764 11.4792L7.67152 27.7012L4.58911 41.7237C4.31511 43.0297 4.69185 44.4045 5.61658 45.4012L9.52097 27.77L4.17812 8.11102Z" fill="white"/>
<path d="M1.19861 11.0668C0.136887 12.1322 -0.274102 13.6444 0.136887 15.0879L3.76729 27.8044L1.4726 38.8024C1.23286 39.9709 1.57535 41.2082 2.39733 42.0674L2.46582 42.1362L5.65099 27.7013L1.19861 11.0668Z" fill="#FF9801"/>
</g>
<defs>
<clipPath id="clip0">
<rect width="187" height="52" fill="white"/>
</clipPath>
</defs>
</svg>
